<svg width="102" height="63" viewBox="0 0 102 63" fill="none" xmlns="http://www.w3.org/2000/svg">
<path d="M96.3896 62.4278C93.5596 62.4278 92.8418 60.5616 91.4678 62.0792H91.0576V49.1387H91.5498C93.8877 59.3106 94.9336 61.8536 96.7793 61.8536C98.0508 61.8536 98.7891 60.8692 98.7891 58.8594C98.7891 56.7881 97.9893 54.9835 96.0205 51.3536L94.1543 48.0313C92.2676 44.709 91.1602 42.2686 91.1602 39.213C91.1602 35.1524 92.8828 33.0196 95.9795 33.0196C98.625 33.0196 99.3223 34.7422 100.512 33.3682H100.922V45.6319H100.409C98.2559 36.0547 97.1689 33.5733 95.5078 33.5733C94.3389 33.5733 93.7031 34.4141 93.7031 36.3419C93.7031 38.2286 94.3594 39.7872 96.3896 43.4171L98.2764 46.7393C100.184 50.0616 101.332 52.6251 101.332 55.8448C101.332 60.1309 99.4658 62.4278 96.3896 62.4278Z" fill="black"/>
<path d="M82.998 62.0792H77.2559V61.669C78.2607 61.4639 78.3838 61.2383 78.3838 60.0284V35.419C78.3838 34.209 78.2607 33.9835 77.2559 33.7784V33.3682H83.6748C87.3867 33.3682 89.1914 35.2139 89.1914 38.6387V42.1251C89.1914 44.9756 87.9609 46.7803 84.4336 47.1495V47.5186C87.1816 47.7442 88.2275 48.544 88.5352 52.2149L88.8428 55.8858C89.1709 59.5772 89.458 61.0948 90.1143 61.6895L90.0322 62.0792H86.2178C85.8076 60.8487 85.623 59.3721 85.377 55.8038L85.1514 52.2354C84.9258 48.6671 84.3721 47.5186 82.8135 47.5186H81.8496V60.0284C81.8496 61.2383 81.9727 61.4639 82.998 61.669V62.0792ZM81.8496 33.963V46.9444H83.1211C84.9873 46.9444 85.7256 46.0626 85.7256 43.5401V37.3878C85.7256 34.8448 84.9873 33.963 83.1211 33.963H81.8496Z" fill="black"/>
<path d="M69.791 62.4278C65.874 62.4278 63.9053 60.1514 63.9053 55.6192L63.9053 39.8282C63.9053 35.296 65.874 33.0196 69.791 33.0196C73.7285 33.0196 75.6973 35.296 75.6973 39.8282V55.6192C75.6973 60.1514 73.7285 62.4278 69.791 62.4278ZM69.8115 62.0176C71.4316 62.0176 72.1904 60.7667 72.1904 57.8546V37.6544C72.1904 34.6807 71.4316 33.4297 69.791 33.4297C68.1709 33.4297 67.4121 34.6807 67.4121 37.6544V57.8546C67.4121 60.7667 68.1709 62.0176 69.8115 62.0176Z" fill="black"/>
<path d="M59.6396 62.0792H52.3389V61.669C54.1025 61.4639 54.2461 61.2383 54.2461 59.9464L54.2461 33.9835H53.7539C52.2158 33.9835 51.7852 35.5215 50.4932 47.0264H49.9805L50.083 33.3682H61.8955L61.998 47.0264H61.4854C60.1934 35.5215 59.7627 33.9835 58.2246 33.9835H57.7324L57.7324 59.9464C57.7324 61.2383 57.876 61.4639 59.6396 61.669V62.0792Z" fill="black"/>
<path d="M41.5928 62.0792H37.6553V61.669C38.209 61.3819 38.5371 60.5821 38.8447 58.3878L42.0234 33.3682H45.2227L48.668 60.0284C48.8525 61.2178 48.9756 61.4434 49.6523 61.669V62.0792H43.7666V61.669C45.1406 61.4639 45.3252 61.1768 45.0996 59.3516L44.5664 55.209H39.8701L39.6445 57.0137C39.2959 59.5362 39.7266 61.3409 41.5928 61.669V62.0792ZM41.2852 44.1348L39.9727 54.5938H44.5049L43.2949 44.0528C42.9463 41.1407 42.7617 39.0284 42.5566 36.793H42.1465C41.9209 39.0284 41.6543 41.1407 41.2852 44.1348Z" fill="black"/>
<path d="M36.3838 62.0792H25.7402V61.669C26.7451 61.4639 26.8682 61.2383 26.8682 60.0284L26.8682 35.419C26.8682 34.209 26.7451 33.9835 25.7402 33.7784V33.3682H36.2812L36.4248 43.0069H35.8916C34.5586 35.5421 33.7178 33.9835 31.6465 33.9835H30.334V46.6778H31.1338C32.4463 46.6778 32.9795 45.4473 33.4512 41.5098H33.9023V52.4405H33.4512C32.9795 48.5235 32.4463 47.293 31.1338 47.293H30.334V61.4639H31.708C33.8203 61.4639 34.6611 59.7823 35.9941 51.0255H36.5068L36.3838 62.0792Z" fill="black"/>
<path d="M17.9883 62.0792H12.2461V61.669C13.251 61.4639 13.374 61.2383 13.374 60.0284L13.374 35.419C13.374 34.209 13.251 33.9835 12.2461 33.7784V33.3682H18.665C22.377 33.3682 24.1816 35.2139 24.1816 38.6387V42.1251C24.1816 44.9756 22.9512 46.7803 19.4238 47.1495L19.4238 47.5186C22.1719 47.7442 23.2178 48.544 23.5254 52.2149L23.833 55.8858C24.1611 59.5772 24.4482 61.0948 25.1045 61.6895L25.0225 62.0792H21.208C20.7979 60.8487 20.6133 59.3721 20.3672 55.8038L20.1416 52.2354C19.916 48.6671 19.3623 47.5186 17.8037 47.5186H16.8398V60.0284C16.8398 61.2383 16.9629 61.4639 17.9883 61.669V62.0792ZM16.8398 33.963V46.9444H18.1113C19.9775 46.9444 20.7158 46.0626 20.7158 43.5401V37.3878C20.7158 34.8448 19.9775 33.963 18.1113 33.963H16.8398Z" fill="black"/>
<path d="M6.01172 62.4278C2.68945 62.4278 0.946289 60.1309 0.946289 55.7217L0.946289 39.8282C0.946289 35.296 2.70996 33.0196 6.01172 33.0196C8.69824 33.0196 9.29297 34.5167 10.2773 33.3682H10.6875L10.6875 45.4063H10.1748C8.75977 35.1524 7.95996 33.4297 6.44238 33.4297C5.06836 33.4297 4.45312 34.6602 4.45312 37.7159L4.45312 54.963C4.45312 58.7979 5.39648 60.3155 7.38574 60.3155C9.21094 60.3155 10.2158 59.0645 10.2158 55.2501V49.9385L10.79 49.959V55.3116C10.79 60.3975 9.16992 62.4278 6.01172 62.4278Z" fill="black"/>
<path d="M95.5283 29.0792H89.2324V28.669C90.2373 28.4639 90.3604 28.2383 90.3604 27.0284V2.41901C90.3604 1.20905 90.2373 0.983459 89.2324 0.778381V0.368225L95.5283 0.368225C99.6709 0.368225 101.599 2.70612 101.599 7.48444V22.004C101.599 26.7618 99.6709 29.0792 95.5283 29.0792ZM93.8262 0.901428V28.546H95.3232C97.3125 28.546 98.0918 27.2335 98.0918 24.1573V5.35162C98.0918 2.23444 97.3125 0.901428 95.3232 0.901428L93.8262 0.901428Z" fill="black"/>
<path d="M81.2549 29.0792H76.1895V28.669C77.0303 27.6436 77.3174 26.1671 77.3174 23.5626V2.41901C77.3174 1.20905 77.1943 0.983459 76.1895 0.778381V0.368225L80.4961 0.368225L85.3359 18.3536C85.8281 20.1378 86.0947 21.3067 86.4434 22.9678L86.833 22.9268C86.71 20.4864 86.6895 19.0303 86.6895 17.6563V9.08405C86.6895 4.98248 85.6436 1.96783 83.6338 0.778381V0.368225L88.4326 0.368225V0.778381C87.5918 1.80377 87.3047 3.28033 87.3047 5.88483V29.0792L84.5361 29.0792L79.2656 9.53522C78.7119 7.48444 78.4453 6.39752 78.1992 5.00299L77.8096 5.04401C77.8916 6.64362 77.9326 7.89459 77.9326 9.14557V18.4766C77.9326 23.4395 79.0195 26.9258 81.2549 28.669V29.0792Z" fill="black"/>
<path d="M71.1855 29.0792H67.9863L64.5615 2.41901C64.377 1.22955 64.2539 1.00397 63.5771 0.778381V0.368225L69.4629 0.368225V0.778381C68.0889 0.983459 67.9248 1.27057 68.6016 7.1358L70.0166 19.2764C70.2422 21.3067 70.4678 23.419 70.6523 25.6544H71.083C71.3086 23.4395 71.5547 21.3067 71.8008 19.2969L72.8262 11.2169C73.8311 3.15729 73.4004 1.10651 71.5547 0.778381V0.368225L75.5332 0.368225V0.778381C74.9385 1.20905 74.5693 2.27545 74.1182 5.00299L71.1855 29.0792Z" fill="black"/>
<path d="M55.2715 29.0792H49.5293V28.669C50.5342 28.4639 50.6572 28.2383 50.6572 27.0284L50.6572 2.41901C50.6572 1.20905 50.5342 0.983459 49.5293 0.778381V0.368225L55.2715 0.368225V0.778381C54.2461 0.983459 54.123 1.20905 54.123 2.41901V13.3292L58.3477 13.3292V2.41901C58.3477 1.20905 58.2246 0.983459 57.2197 0.778381V0.368225L62.9619 0.368225V0.778381C61.9365 0.983459 61.8135 1.20905 61.8135 2.41901V27.0284C61.8135 28.2383 61.9365 28.4639 62.9619 28.669V29.0792L57.2197 29.0792V28.669C58.2246 28.4639 58.3477 28.2383 58.3477 27.0284V13.9444L54.123 13.9444L54.123 27.0284C54.123 28.2383 54.2461 28.4639 55.2715 28.669V29.0792Z" fill="black"/>
<path d="M41.5518 29.0792H35.7891V28.669C36.7939 28.4639 36.917 28.2383 36.917 27.0284L36.917 2.41901C36.917 1.20905 36.7939 0.983459 35.7891 0.778381V0.368225L41.5518 0.368225V0.778381C40.5059 0.983459 40.3828 1.20905 40.3828 2.41901V6.70514C40.3828 9.2276 40.2803 11.1964 39.9111 14.4776L40.2803 14.5801L44.1562 7.01276C46.166 3.05475 46.1865 1.20905 43.5205 0.778381V0.368225L48.832 0.368225V0.778381C48.1758 1.12701 47.6221 1.84479 46.5557 3.77252L44.2588 8.30475L47.9912 27.0284C48.2988 28.1768 48.4219 28.4639 48.8936 28.669V29.0792L43.377 29.0792V28.669C44.5459 28.4639 44.71 28.1563 44.4434 27.0284L41.8389 13.0421L40.3828 15.6055L40.3828 27.0284C40.3828 28.2383 40.5059 28.4639 41.5518 28.669V29.0792Z" fill="black"/>
<path d="M30.7852 29.0792H27.5859L24.1611 2.41901C23.9766 1.22955 23.8535 1.00397 23.1768 0.778381V0.368225L29.0625 0.368225V0.778381C27.6885 0.983459 27.5244 1.27057 28.2012 7.1358L29.6162 19.2764C29.8418 21.3067 30.0674 23.419 30.252 25.6544H30.6826C30.9082 23.4395 31.1543 21.3067 31.4004 19.2969L32.4258 11.2169C33.4307 3.15729 33 1.10651 31.1543 0.778381V0.368225L35.1328 0.368225V0.778381C34.5381 1.20905 34.1689 2.27545 33.7178 5.00299L30.7852 29.0792Z" fill="black"/>
<path d="M23.3203 29.0792H13.5996V28.669C14.6045 28.4639 14.7275 28.2383 14.7275 27.0284L14.7275 2.41901C14.7275 1.20905 14.6045 0.983459 13.5996 0.778381V0.368225L20.1211 0.368225V0.778381C18.3574 0.983459 18.1934 1.20905 18.1934 2.50104L18.1934 28.4639H19.1162C21.0234 28.4639 21.7822 26.4131 22.9307 15.0313H23.4639L23.3203 29.0792Z" fill="black"/>
<path d="M7.22168 29.0792H0.1875L0.1875 28.669C1.19238 28.4639 1.31543 28.2383 1.31543 27.0284L1.31543 2.41901C1.31543 1.20905 1.19238 0.983459 0.1875 0.778381L0.1875 0.368225L6.99609 0.368225C10.4619 0.368225 11.918 1.76276 11.918 5.18756L11.918 9.55573C11.918 12.2422 10.7695 13.5958 7.98047 13.8419L7.98047 14.211C11.1592 14.4571 12.3076 15.8106 12.3076 19.0919V23.9727C12.3076 27.5001 10.708 29.0792 7.22168 29.0792ZM4.78125 0.942444L4.78125 13.7188L6.01172 13.7188C7.85742 13.7188 8.53418 12.8165 8.53418 10.5401L8.53418 4.22369C8.53418 1.84479 7.89844 0.942444 6.05273 0.942444L4.78125 0.942444ZM4.78125 14.293L4.78125 28.5049H6.17578C8.02148 28.5049 8.75977 27.5206 8.75977 25.0186V17.8819C8.75977 15.1954 7.98047 14.293 6.13477 14.293L4.78125 14.293Z" fill="black"/>
</svg>
