<svg width="66" height="69" viewBox="0 0 66 69" fill="none" xmlns="http://www.w3.org/2000/svg">
<path fill-rule="evenodd" clip-rule="evenodd" d="M0.231201 0.729309L48.0614 0.729309L65.855 68.1715H18.0248L0.231201 0.729309ZM2.51864 2.49151L19.3824 66.4093H63.5675L46.7038 2.49151L2.51864 2.49151Z" fill="#FF0000"/>
<path d="M10.966 16.2136C12.5427 16.2136 13.0669 15.5242 12.622 13.9842L12.0064 11.8532C11.5926 10.4207 10.9025 9.82974 9.4339 9.7223L9.38735 9.56114C10.6176 9.45369 10.9663 8.86276 10.6274 7.68986L10.0765 5.78276C9.64455 4.28753 8.81018 3.6787 7.2428 3.6787H4.1637L4.21543 3.85777C4.69574 3.9473 4.77984 4.04579 4.93245 4.57404L8.03632 15.3182C8.18893 15.8465 8.16173 15.945 7.73315 16.0345L7.78488 16.2136H10.966ZM6.31359 3.92939H6.8886C7.7233 3.92939 8.12462 4.32335 8.42466 5.36195L9.22132 8.11962C9.50843 9.11346 9.31618 9.50741 8.48148 9.50741H7.92502L6.79232 6.63335L6.31359 3.92939ZM7.99744 9.75811H8.60955C9.44425 9.75811 9.91049 10.1521 10.2493 11.325L11.1494 14.4408C11.465 15.5331 11.2553 15.9629 10.4206 15.9629H9.78993L8.59035 12.8573L7.99744 9.75811Z" fill="white"/>
<path d="M17.6766 16.2136L15.9697 10.0804H15.7286C16.6448 15.0496 16.5603 15.945 15.6978 15.945H15.2804L12.0058 4.60986C11.8429 4.04579 11.8886 3.9473 12.6603 3.85777L12.6086 3.6787H9.65934L9.71107 3.85777C10.1914 3.9473 10.2755 4.04579 10.4281 4.57404L13.532 15.3182C13.6846 15.8465 13.6574 15.945 13.2288 16.0345L13.2805 16.2136H17.6766Z" fill="white"/>
<path d="M20.4827 16.2136L18.7723 5.70218C18.6323 4.51137 18.6648 4.04579 18.8794 3.85777L18.8277 3.6787H17.0284L17.0802 3.85777C17.9562 4.00102 18.4097 4.89637 18.9717 8.41509L19.5271 11.9428C19.6693 12.8202 19.827 13.7514 20.0043 14.7183H19.8096C19.4442 13.7424 19.0757 12.8202 18.7177 11.9338L16.5465 6.63335C15.5007 4.07265 15.5386 3.9473 16.1342 3.85777L16.0824 3.6787H13.4207L13.4724 3.85777C13.8069 3.95625 13.891 4.05474 14.1245 4.57404L19.0359 16.2136H20.4827Z" fill="white"/>
<path d="M24.7819 16.2136L24.7302 16.0345C24.2313 15.945 24.1472 15.8465 23.9946 15.3182L22.5539 10.3311L22.8891 9.21195L25.831 15.3182C26.0938 15.8107 26.0584 15.945 25.5556 16.0345L25.6073 16.2136H28.1022L28.0504 16.0345C27.8112 15.945 27.7194 15.8196 27.4354 15.3182L23.386 7.14369L23.8531 5.16497C24.0922 4.32335 24.2521 4.00997 24.5049 3.85777L24.4531 3.6787H22.0511L22.1028 3.85777C23.3628 4.04579 23.5863 4.8516 23.1766 6.57962L22.3782 9.88346L22.1983 9.83869C21.9514 8.40614 21.7495 7.5466 21.4313 6.44532L20.8907 4.57404C20.7381 4.04579 20.7653 3.9473 21.2125 3.85777L21.1607 3.6787H18.5546L18.6064 3.85777C19.0867 3.9473 19.1708 4.04579 19.3234 4.57404L22.4272 15.3182C22.5799 15.8465 22.5527 15.945 22.1241 16.0345L22.1758 16.2136H24.7819Z" fill="white"/>
<path d="M30.4167 16.2136L30.365 16.0345C29.8754 15.945 29.7913 15.8465 29.6387 15.3182L27.9884 9.6059H29.899L31.5492 15.3182C31.7018 15.8465 31.6746 15.945 31.246 16.0345L31.2978 16.2136H33.8946L33.8429 16.0345C33.3533 15.945 33.2692 15.8465 33.1166 15.3182L30.0127 4.57404C29.8601 4.04579 29.8873 3.9473 30.3251 3.85777L30.2734 3.6787H27.6766L27.7283 3.85777C28.2086 3.9473 28.2927 4.04579 28.4453 4.57404L29.8214 9.3373H27.9108L26.5348 4.57404C26.3822 4.04579 26.4094 3.9473 26.8472 3.85777L26.7955 3.6787H24.1987L24.2504 3.85777C24.7307 3.9473 24.8148 4.04579 24.9674 4.57404L28.0713 15.3182C28.2239 15.8465 28.1967 15.945 27.7681 16.0345L27.8198 16.2136H30.4167Z" fill="white"/>
<path d="M37.0438 16.2136L35.3334 5.70218C35.1934 4.51137 35.2259 4.04579 35.4405 3.85777L35.3888 3.6787H33.5896L33.6413 3.85777C34.5174 4.00102 34.9708 4.89637 35.5329 8.41509L36.0882 11.9428C36.2304 12.8202 36.3881 13.7514 36.5655 14.7183H36.3707C36.0053 13.7424 35.6369 12.8202 35.2788 11.9338L33.1076 6.63335C32.0618 4.07265 32.0998 3.9473 32.6953 3.85777L32.6436 3.6787H29.9818L30.0335 3.85777C30.368 3.95625 30.4521 4.05474 30.6856 4.57404L35.597 16.2136H37.0438Z" fill="white"/>
<path d="M41.0277 16.2136L40.976 16.0345C39.7452 15.2735 38.814 13.7514 38.188 11.5846L37.0111 7.51079C36.8534 6.96462 36.677 6.41846 36.4382 5.72009L36.6092 5.70218C36.8964 6.31102 37.154 6.78555 37.6631 7.6809L42.5116 16.2136H43.7637L40.8383 6.08718C40.5098 4.95009 40.4534 4.30544 40.7043 3.85777L40.6526 3.6787H38.4824L38.5341 3.85777C39.593 4.37707 40.4462 5.69323 40.9635 7.48393L42.0447 11.2265C42.218 11.8264 42.4109 12.4621 42.7744 13.5275L42.6034 13.5454C42.2362 12.8202 41.9682 12.3099 41.5206 11.5309L37.0634 3.6787H35.1158L35.1675 3.85777C35.6478 3.9473 35.7319 4.04579 35.8845 4.57404L38.5513 13.8051C38.8797 14.9422 38.9361 15.5868 38.6852 16.0345L38.7369 16.2136H41.0277Z" fill="white"/>
<path d="M46.9129 16.2136C48.7863 16.2136 49.3658 15.2018 48.7658 13.1246L46.9345 6.78555C46.3318 4.69939 45.1651 3.6787 43.2917 3.6787H40.4445L40.4962 3.85777C40.9765 3.9473 41.0606 4.04579 41.2132 4.57404L44.3171 15.3182C44.4697 15.8465 44.4425 15.945 44.0139 16.0345L44.0656 16.2136H46.9129ZM42.5892 3.91149H43.2662C44.1658 3.91149 44.6864 4.49346 45.0795 5.85439L47.4514 14.0647C47.8394 15.4078 47.6525 15.9808 46.7529 15.9808H46.0759L43.9107 10.0804L42.5892 3.91149Z" fill="white"/>
<path d="M26.1037 65.0041L24.6386 59.7208H24.3836C24.9296 63.9062 24.7436 64.71 23.6929 64.71H23.0094L21.6336 61.3306L21.0527 57.9368H21.4506C22.1034 57.9368 22.5386 58.5249 23.314 60.3971H23.5384L22.0292 55.1726H21.8047C22.1138 57.0546 22.0185 57.6428 21.3656 57.6428H20.9678L19.7079 54.6649L19.215 51.5753H19.8678C20.8981 51.5753 21.5316 52.3203 23.2254 55.8882H23.4906L22.0883 51.2812H16.845L16.9016 51.4773C17.4298 51.5753 17.5222 51.6831 17.6892 52.2614L21.0873 64.0239C21.2543 64.6022 21.2243 64.71 20.7528 64.808L20.8094 65.0041H26.1037Z" fill="white"/>
<path d="M29.2431 65.1707C30.7732 65.1707 31.3843 64.0729 30.7925 62.0243C30.3479 60.4853 29.4227 59.2601 28.0153 57.6722L26.6181 56.0842C25.107 54.3493 24.5654 53.6043 24.3048 52.7025C24.0387 51.7811 24.2388 51.3793 24.8202 51.3793C25.6465 51.3793 26.5298 52.5653 28.9233 57.1428H29.1783L27.485 51.2812H27.2809C26.879 51.938 26.2943 51.1146 24.9784 51.1146C23.4381 51.1146 22.8757 52.134 23.4364 54.0748C23.8583 55.5353 24.7461 56.7018 26.1433 58.2897L27.5303 59.8776C29.0108 61.6126 29.6579 62.4751 29.9439 63.4651C30.2214 64.4257 29.9901 64.8962 29.3576 64.8962C28.4395 64.8962 27.5681 63.6808 25.0007 58.819H24.7559L26.5427 65.0041H26.7467C27.2206 64.2787 27.8353 65.1707 29.2431 65.1707Z" fill="white"/>
<path d="M35.0303 65.0041L34.9736 64.808C34.068 64.71 33.9581 64.612 33.7797 63.9945L32.6102 59.9462H33.4875C35.3645 59.9462 35.9869 59.064 35.463 57.2507L34.5257 54.0062C33.999 52.183 32.8612 51.2812 30.9843 51.2812H27.822L27.8786 51.4773C28.4068 51.5753 28.4991 51.6831 28.6662 52.2614L32.0642 64.0239C32.2313 64.6022 32.2013 64.71 31.7297 64.808L31.7864 65.0041H35.0303ZM30.1806 51.5361H30.8743C31.7312 51.5361 32.2298 52.0262 32.5752 53.222L33.9628 58.025C34.3054 59.2111 34.0871 59.6914 33.2302 59.6914H32.5366L31.0259 55.4667L30.1806 51.5361Z" fill="white"/>
<path d="M41.2503 65.1707C43.2089 65.1707 43.8739 64.0827 43.2481 61.9164L41.0677 54.3689C40.4419 52.2026 39.1483 51.1146 37.1897 51.1146C35.2413 51.1146 34.5764 52.2026 35.2022 54.3689L37.3826 61.9164C38.0084 64.0827 39.302 65.1707 41.2503 65.1707ZM41.2039 64.9747C40.3878 64.9747 39.8377 64.3767 39.4356 62.9849L37.7239 58.2897L36.6464 53.3299C36.2358 51.9086 36.4405 51.3106 37.2463 51.3106C38.0624 51.3106 38.6126 51.9086 39.0232 53.3299L40.816 58.2897L41.8124 62.9849C42.2145 64.3767 42.0098 64.9747 41.2039 64.9747Z" fill="white"/>
<path d="M47.3537 65.0041L47.2971 64.808C46.7588 64.71 46.6664 64.6022 46.4993 64.0239L44.772 58.0446H45.2514C46.0267 58.0446 46.4607 58.5935 47.0656 60.2991L47.6706 62.0046C48.2857 63.7102 48.5814 64.4159 48.9553 65.0041H50.8527L50.8397 64.8178C50.4311 64.5336 50.0788 63.8082 49.4058 62.0439L48.7459 60.2893C48.0861 58.5347 47.4554 58.1525 46.0573 58.0446L46.0063 57.8682C47.7099 57.6918 48.0728 56.8292 47.6792 55.4667L47.1978 53.8004C46.7249 52.1634 45.5724 51.2812 43.726 51.2812H40.5331L40.5898 51.4773C41.1179 51.5753 41.2103 51.6831 41.3773 52.2614L44.7754 64.0239C44.9424 64.6022 44.9124 64.71 44.4409 64.808L44.4975 65.0041H47.3537ZM42.9002 51.5655H43.5327C44.461 51.5655 44.95 51.987 45.3011 53.2024L46.1506 56.143C46.4989 57.3487 46.2534 57.7702 45.3252 57.7702H44.6927L42.9002 51.5655Z" fill="white"/>
<path d="M55.6985 65.0041L55.6419 64.808C54.7363 64.71 54.6337 64.6022 54.4553 63.9847L50.8704 51.5753H51.1152C51.8803 51.5753 52.3069 52.3105 54.5381 57.8094H54.7931L52.8562 51.2812H46.9805L48.8154 57.8094H49.0704C48.1245 52.3105 48.1263 51.5753 48.8914 51.5753H49.1362L52.7212 63.9847C52.8996 64.6022 52.8593 64.71 52.0103 64.808L52.067 65.0041H55.6985Z" fill="white"/>
<path d="M59.8784 65.1707C61.4085 65.1707 62.0197 64.0729 61.4278 62.0243C60.9833 60.4853 60.0581 59.2601 58.6506 57.6722L57.2534 56.0842C55.7423 54.3493 55.2007 53.6043 54.9402 52.7025C54.674 51.7811 54.8741 51.3793 55.4556 51.3793C56.2818 51.3793 57.1651 52.5653 59.5586 57.1428H59.8136L58.1203 51.2812H57.9163C57.5143 51.938 56.9297 51.1146 55.6137 51.1146C54.0734 51.1146 53.511 52.134 54.0717 54.0748C54.4936 55.5353 55.3814 56.7018 56.7787 58.2897L58.1657 59.8776C59.6462 61.6126 60.2932 62.4751 60.5792 63.4651C60.8567 64.4257 60.6254 64.8962 59.9929 64.8962C59.0749 64.8962 58.2035 63.6808 55.6361 58.819H55.3912L57.178 65.0041H57.3821C57.856 64.2787 58.4707 65.1707 59.8784 65.1707Z" fill="white"/>
<path d="M29.6771 38.5946L24.3587 41.5463C24.3587 41.5463 25.3053 51.2153 18.0137 53.1299C10.7221 51.2153 11.6688 41.5463 11.6688 41.5463L6.35034 38.5946C6.96728 41.6421 7.22257 42.5356 7.3183 44.4449C7.41403 46.3542 8.91384 48.2157 10.1211 50.4707C11.3284 52.7257 14.2536 57.8793 16.0299 57.8793H20.0294C21.8058 57.8793 24.7363 52.7204 25.9382 50.4707C27.1402 48.221 28.6507 46.3489 28.7411 44.4449C28.8315 42.5409 29.0389 41.6421 29.6771 38.5946Z" fill="url(#paint0_radial_1_388)"/>
<path d="M27.5066 39.1317H8.44519C8.65793 41.4346 9.96095 43.1365 9.83331 45.099C9.70567 47.0616 13.0935 54.6031 16.5931 55.5073H19.3587C22.8582 54.6031 26.2727 47.0775 26.1184 45.099C25.9642 43.1206 27.2938 41.4346 27.5066 39.1317Z" fill="url(#paint1_linear_1_388)"/>
<path d="M8.44519 39.1317C8.65793 41.4346 9.96095 43.1365 9.83331 45.099C9.70567 47.0616 13.0935 54.6031 16.5931 55.5073H19.3587C22.8582 54.6031 26.2727 47.0775 26.1184 45.099C25.9642 43.1206 27.2938 41.4346 27.5066 39.1317" stroke="url(#paint2_linear_1_388)"/>
<path d="M17.97 52.5768C20.546 52.5768 22.6342 50.4886 22.6342 47.9125C22.6342 45.3365 20.546 43.2483 17.97 43.2483C15.3939 43.2483 13.3057 45.3365 13.3057 47.9125C13.3057 50.4886 15.3939 52.5768 17.97 52.5768Z" fill="url(#paint3_radial_1_388)"/>
<path d="M24.1348 45.7798C23.805 48.2795 22.1669 52.3747 17.976 52.3747C13.785 52.3747 12.1257 48.2795 11.8172 45.7798C11.5869 46.1636 11.4835 46.6102 11.5217 47.0561C11.5599 47.5021 11.7377 47.9246 12.0299 48.2636C11.9962 48.578 12.0481 48.8958 12.1801 49.1832C12.3121 49.4706 12.5193 49.717 12.7799 49.8963C12.7807 50.1026 12.8291 50.3059 12.9213 50.4904C13.0136 50.6749 13.1472 50.8356 13.3117 50.96C13.4287 51.5397 13.8755 52.1939 14.2531 52.2524C14.402 52.2524 14.5296 52.1886 14.6413 52.029C14.7956 52.6992 15.2955 53.4491 15.6305 53.4491C15.7476 53.4491 15.8326 53.3374 15.9018 53.1566C16.0826 53.5554 16.3645 53.8852 16.5985 53.9065C16.7421 53.9065 16.8538 53.7735 16.9389 53.5501C17.1091 53.8905 17.3378 54.1617 17.5346 54.183C17.7313 54.2043 17.8749 53.8905 17.96 53.4757C18.0451 53.8905 18.1887 54.2043 18.3855 54.183C18.5823 54.1617 18.811 53.8905 18.9812 53.5501C19.0663 53.7735 19.178 53.9171 19.3216 53.9065C19.5556 53.9065 19.8534 53.5554 20.0183 53.1566C20.0874 53.3374 20.1725 53.4544 20.2895 53.4491C20.6246 53.4491 21.1245 52.6992 21.2788 52.029C21.3904 52.1886 21.5181 52.279 21.667 52.2524C22.0446 52.1939 22.4914 51.5397 22.6084 50.96C22.7729 50.8356 22.9065 50.6749 22.9987 50.4904C23.091 50.3059 23.1394 50.1026 23.1402 49.8963C23.4007 49.717 23.608 49.4706 23.74 49.1832C23.872 48.8958 23.9238 48.578 23.8901 48.2636C24.1873 47.9281 24.371 47.5074 24.4149 47.0614C24.4589 46.6153 24.3608 46.1668 24.1348 45.7798Z" fill="url(#paint4_linear_1_388)"/>
<path d="M23.9486 44.2428C22.2573 43.9397 22.1084 48.6252 22.1988 48.9018C21.985 49.0016 21.8104 49.1697 21.7026 49.3796C21.5947 49.5894 21.5598 49.8292 21.6031 50.0612C21.412 50.1384 21.2474 50.2695 21.1294 50.4385C21.0113 50.6075 20.945 50.8072 20.9383 51.0132C20.7035 51.0359 20.4796 51.1236 20.2917 51.2664C20.1038 51.4092 19.9594 51.6014 19.8746 51.8216C19.7629 51.7791 18.8375 51.8216 18.8109 52.0716C18.7312 52.0716 18.1887 51.8961 17.9759 52.2737C17.7632 51.8961 17.2207 52.0556 17.1409 52.0716C17.0984 51.8003 16.173 51.7791 16.0773 51.8216C15.9925 51.6014 15.848 51.4092 15.6602 51.2664C15.4723 51.1236 15.2484 51.0359 15.0136 51.0132C15.0069 50.8072 14.9405 50.6075 14.8225 50.4385C14.7045 50.2695 14.5399 50.1384 14.3488 50.0612C14.3921 49.8292 14.3572 49.5894 14.2493 49.3796C14.1415 49.1697 13.9669 49.0016 13.7531 48.9018C13.8435 48.6252 13.6946 43.9397 12.0033 44.2428C11.2162 44.3864 12.0033 52.7204 17.9759 52.7204C23.9486 52.7204 24.7357 44.3864 23.9486 44.2428Z" fill="url(#paint5_linear_1_388)"/>
<path d="M17.9759 48.1731C21.9541 48.1731 23.2093 46.1947 23.2093 46.1947C23.2093 46.4074 25.3366 41.1155 28.3469 40.706C32.8623 40.0784 32.6602 37.1586 32.6602 35.8875C32.6602 34.6164 30.804 34.1856 30.804 32.6113C30.804 31.0371 33.0431 28.6969 33.0431 25.2984C33.0431 16.4272 26.8364 9.05585 17.9759 9.05585C9.11534 9.05585 2.90869 16.4272 2.90869 25.2984C2.90869 28.6969 5.14776 31.0424 5.14776 32.6113C5.14776 34.1803 3.29162 34.6164 3.29162 35.8875C3.29162 37.1586 3.08952 40.0784 7.60489 40.706C10.5885 41.1155 12.7691 46.668 12.7425 46.4553C12.7425 46.4553 13.9977 48.1731 17.9759 48.1731Z" fill="url(#paint6_radial_1_388)"/>
<path d="M17.9763 9.05588C6.21187 9.05588 5.33432 15.4806 6.73308 24.1816C8.20629 29.1384 4.60569 31.1275 6.20123 32.271C11.3335 30.3882 12.8333 31.9784 17.955 31.9784C23.0767 31.9784 24.5765 30.3829 29.7088 32.271C31.3044 31.1275 27.725 29.1384 29.177 24.1816C30.6183 15.4806 29.7407 9.05588 17.9763 9.05588Z" fill="url(#paint7_radial_1_388)"/>
<path d="M17.9759 48.1731C21.9541 48.1731 23.2093 46.1947 23.2093 46.1947C23.2093 46.4074 25.3366 41.1155 28.3469 40.706C32.8623 40.0784 32.6602 37.1586 32.6602 35.8875C32.6602 34.6164 30.804 34.1856 30.804 32.6113C30.804 31.0371 33.0431 28.6969 33.0431 25.2984C33.0431 16.4272 26.8364 9.05585 17.9759 9.05585C9.11534 9.05585 2.90869 16.4272 2.90869 25.2984C2.90869 28.6969 5.14776 31.0424 5.14776 32.6113C5.14776 34.1803 3.29162 34.6164 3.29162 35.8875C3.29162 37.1586 3.08952 40.0784 7.60489 40.706C10.5885 41.1155 12.7691 46.668 12.7425 46.4553C12.7425 46.4553 13.9977 48.1731 17.9759 48.1731Z" fill="url(#paint8_radial_1_388)"/>
<path d="M17.9763 9.05588C6.21187 9.05588 5.33432 15.4806 6.73308 24.1816C8.20629 29.1384 4.60569 31.1275 6.20123 32.271C11.3335 30.3882 12.8333 31.9784 17.955 31.9784C23.0767 31.9784 24.5765 30.3829 29.7088 32.271C31.3044 31.1275 27.725 29.1384 29.177 24.1816C30.6183 15.4806 29.7407 9.05588 17.9763 9.05588Z" fill="url(#paint9_radial_1_388)"/>
<path d="M29.9956 33.8824C29.9956 29.4043 28.5756 30.3138 25.1186 30.3138C22.9327 30.3138 21.3478 31.9838 17.9759 31.9838C14.604 31.9838 13.0191 30.3138 10.8332 30.3138C7.3762 30.3138 5.95618 29.4043 5.95618 33.8824C5.95618 35.3078 4.78611 36.2704 6.0785 37.4033C7.15337 38.3201 8.50349 38.852 9.91489 38.9146C11.3263 38.9772 12.7182 38.567 13.87 37.749C15.2475 36.8023 15.4656 33.9144 17.9759 33.9144C20.4862 33.9144 20.7043 36.8023 22.0817 37.749C23.2336 38.567 24.6255 38.9772 26.0369 38.9146C27.4483 38.852 28.7984 38.3201 29.8733 37.4033C31.1657 36.2651 29.9956 35.3025 29.9956 33.8824Z" fill="url(#paint10_linear_1_388)"/>
<path d="M15.4336 34.2973C15.4336 35.7865 12.4287 37.4884 9.3865 37.3927C6.34433 37.2969 7.20593 34.7334 6.91873 33.8027C6.63153 32.872 5.51997 31.4732 8.43981 31.4732C11.3597 31.4732 15.4336 32.1806 15.4336 34.2973Z" fill="url(#paint11_radial_1_388)"/>
<path d="M15.4336 34.2973C15.4336 35.7864 12.4287 37.4884 9.3865 37.3926C6.34433 37.2969 7.20593 34.7334 6.91873 33.8027C6.63153 32.8719 5.51997 31.4732 8.43981 31.4732C11.3597 31.4732 15.4336 32.1805 15.4336 34.2973Z" fill="black"/>
<path d="M20.5177 34.2973C20.5177 35.7865 23.5226 37.4884 26.5648 37.3927C29.607 37.2969 28.7454 34.7334 29.0326 33.8027C29.3198 32.872 30.4313 31.4732 27.5115 31.4732C24.5916 31.4732 20.5177 32.1806 20.5177 34.2973Z" fill="url(#paint12_radial_1_388)"/>
<path d="M20.5177 34.2973C20.5177 35.7864 23.5226 37.4884 26.5648 37.3926C29.607 37.2969 28.7454 34.7334 29.0326 33.8027C29.3198 32.8719 30.4313 31.4732 27.5115 31.4732C24.5916 31.4732 20.5177 32.1805 20.5177 34.2973Z" fill="#0F0F0F"/>
<path d="M19.444 36.4406C18.8483 35.9088 18.1782 36.8661 18.9121 38.0947C19.444 39.0148 17.992 44.881 17.992 44.881V37.6054C17.992 35.595 16.8805 36.3609 16.2901 36.8927C15.5136 37.5894 13.0299 44.0886 12.9501 46.0405C12.9076 46.9925 16.088 47.737 17.992 47.7956C19.896 47.737 23.0765 46.9925 23.0339 46.0405C22.9435 44.179 20.5183 37.4086 19.444 36.4406Z" fill="url(#paint13_linear_1_388)"/>
<path d="M17.976 44.881C18.7259 44.881 21.1351 41.9133 20.5182 40.0306C20.0608 38.6265 19.8215 37.148 18.9227 36.7172C18.0238 36.2864 18.4653 37.6851 18.5504 38.5467C18.6355 39.4083 18.3217 42.6686 17.9813 42.6686C17.6409 42.6686 17.3324 39.4083 17.4122 38.5467C17.492 37.6851 17.9441 36.2811 17.0399 36.7172C16.1358 37.1533 15.8964 38.6265 15.4444 40.0306C14.8168 41.9133 17.2261 44.881 17.976 44.881Z" fill="url(#paint14_radial_1_388)"/>
<path d="M17.976 44.881C18.7259 44.881 21.1351 41.9133 20.5182 40.0306C20.0608 38.6265 19.8215 37.148 18.9227 36.7172C18.0238 36.2864 18.4653 37.6851 18.5504 38.5467C18.6355 39.4083 18.3217 42.6686 17.9813 42.6686C17.6409 42.6686 17.3324 39.4083 17.4122 38.5467C17.492 37.6851 17.9441 36.2811 17.0399 36.7172C16.1358 37.1533 15.8964 38.6265 15.4444 40.0306C14.8168 41.9133 17.2261 44.881 17.976 44.881Z" fill="#161616"/>
<path d="M17.9759 49.1465C17.9759 49.6783 19.3587 49.7208 19.6247 49.1784C19.7303 49.2471 19.8498 49.2916 19.9747 49.3085C20.0996 49.3254 20.2266 49.3144 20.3467 49.2762C20.4668 49.2381 20.5769 49.1737 20.6691 49.0878C20.7613 49.0019 20.8333 48.8966 20.8798 48.7795C21.167 49.1199 21.9435 49.3486 22.0286 48.1998C22.129 48.2213 22.2327 48.2223 22.3335 48.2027C22.4343 48.183 22.5301 48.1432 22.6151 48.0855C22.7001 48.0279 22.7725 47.9536 22.828 47.8672C22.8835 47.7808 22.921 47.6841 22.9381 47.5828C23.337 47.7477 23.6188 46.1894 23.1508 45.5352C22.671 45.7249 22.2308 46.0027 21.8531 46.3543C21.6404 45.8543 20.949 45.6682 20.7203 47.1095C20.5075 46.7425 19.8108 46.5404 19.4811 47.4499C18.9864 46.2958 18.0132 47.1414 17.9759 47.7371C17.9387 47.1414 16.9654 46.2958 16.4708 47.4499C16.1411 46.5404 15.4444 46.7425 15.2316 47.1095C15.0029 45.6682 14.3115 45.8543 14.0988 46.3543C13.7211 46.0027 13.2809 45.7249 12.8011 45.5352C12.3331 46.1894 12.6149 47.7477 13.0138 47.5828C13.0309 47.6841 13.0684 47.7808 13.1239 47.8672C13.1794 47.9536 13.2518 48.0279 13.3368 48.0855C13.4218 48.1432 13.5175 48.183 13.6183 48.2027C13.7191 48.2223 13.8229 48.2213 13.9233 48.1998C13.9871 49.3486 14.7849 49.1199 15.0721 48.7795C15.1186 48.8966 15.1906 49.0019 15.2827 49.0878C15.3749 49.1737 15.4851 49.2381 15.6051 49.2762C15.7252 49.3144 15.8523 49.3254 15.9772 49.3085C16.1021 49.2916 16.2216 49.2471 16.3272 49.1784C16.5931 49.7208 17.9759 49.6677 17.9759 49.1465Z" fill="url(#paint15_radial_1_388)"/>
<path d="M59.812 30.1118L54.4935 27.1601C54.4935 27.1601 55.4402 17.4911 48.1486 15.5765C40.857 17.4911 41.8037 27.1601 41.8037 27.1601L36.4852 30.1118C37.1022 27.0644 37.3575 26.1709 37.4532 24.2615C37.5489 22.3522 39.0487 20.4908 40.256 18.2357C41.4633 15.9807 44.3885 10.8271 46.1648 10.8271H50.1643C51.9407 10.8271 54.8712 15.986 56.0731 18.2357C57.2751 20.4854 58.7855 22.3575 58.876 24.2615C58.9664 26.1655 59.1738 27.0644 59.812 30.1118Z" fill="url(#paint16_radial_1_388)"/>
<path d="M57.6416 29.5747H38.5802C38.7929 27.2718 40.096 25.5699 39.9683 23.6074C39.8407 21.6449 43.2285 14.1033 46.7281 13.1992H49.4937C52.9932 14.1033 56.4077 21.6289 56.2534 23.6074C56.0992 25.5859 57.4288 27.2718 57.6416 29.5747Z" fill="url(#paint17_linear_1_388)"/>
<path d="M38.5802 29.5747C38.7929 27.2718 40.096 25.5699 39.9683 23.6074C39.8407 21.6449 43.2285 14.1033 46.7281 13.1992H49.4937C52.9932 14.1033 56.4077 21.6289 56.2534 23.6074C56.0992 25.5859 57.4288 27.2718 57.6416 29.5747" stroke="url(#paint18_linear_1_388)"/>
<path d="M48.105 16.1296C50.681 16.1296 52.7693 18.2179 52.7693 20.7939C52.7693 23.3699 50.681 25.4582 48.105 25.4582C45.5289 25.4582 43.4407 23.3699 43.4407 20.7939C43.4407 18.2179 45.5289 16.1296 48.105 16.1296Z" fill="url(#paint19_radial_1_388)"/>
<path d="M54.2698 22.9266C53.94 20.4269 52.302 16.3317 48.111 16.3317C43.9201 16.3317 42.2607 20.4269 41.9522 22.9266C41.7219 22.5428 41.6185 22.0962 41.6567 21.6503C41.6949 21.2044 41.8727 20.7818 42.165 20.4429C42.1312 20.1284 42.1831 19.8106 42.3151 19.5232C42.4471 19.2358 42.6543 18.9894 42.9149 18.8101C42.9157 18.6038 42.9641 18.4005 43.0563 18.216C43.1486 18.0315 43.2822 17.8708 43.4467 17.7464C43.5637 17.1667 44.0105 16.5125 44.3881 16.454C44.537 16.454 44.6646 16.5178 44.7763 16.6774C44.9306 16.0073 45.4305 15.2574 45.7656 15.2574C45.8826 15.2574 45.9677 15.369 46.0368 15.5499C46.2176 15.151 46.4995 14.8212 46.7335 14.8C46.8771 14.8 46.9888 14.9329 47.0739 15.1563C47.2441 14.8159 47.4728 14.5447 47.6696 14.5234C47.8664 14.5021 48.01 14.8159 48.095 15.2308C48.1801 14.8159 48.3237 14.5021 48.5205 14.5234C48.7173 14.5447 48.946 14.8159 49.1162 15.1563C49.2013 14.9329 49.313 14.7893 49.4566 14.8C49.6906 14.8 49.9884 15.151 50.1533 15.5499C50.2224 15.369 50.3075 15.252 50.4245 15.2574C50.7596 15.2574 51.2595 16.0073 51.4138 16.6774C51.5255 16.5178 51.6531 16.4274 51.802 16.454C52.1796 16.5125 52.6264 17.1667 52.7434 17.7464C52.9079 17.8708 53.0415 18.0315 53.1337 18.216C53.226 18.4005 53.2744 18.6038 53.2752 18.8101C53.5357 18.9894 53.743 19.2358 53.875 19.5232C54.007 19.8106 54.0589 20.1284 54.0251 20.4429C54.3223 20.7783 54.506 21.1991 54.5499 21.6451C54.5939 22.0911 54.4958 22.5396 54.2698 22.9266Z" fill="url(#paint20_linear_1_388)"/>
<path d="M54.0835 24.4636C52.3922 24.7668 52.2433 20.0812 52.3337 19.8046C52.1199 19.7048 51.9453 19.5368 51.8375 19.3269C51.7296 19.117 51.6946 18.8772 51.738 18.6452C51.5469 18.568 51.3823 18.4369 51.2643 18.2679C51.1462 18.0989 51.0799 17.8993 51.0732 17.6932C50.8384 17.6705 50.6145 17.5828 50.4266 17.44C50.2387 17.2973 50.0943 17.105 50.0095 16.8848C49.8978 16.9274 48.9724 16.8848 48.9458 16.6348C48.8661 16.6348 48.3236 16.8104 48.1108 16.4327C47.8981 16.8104 47.3556 16.6508 47.2758 16.6348C47.2333 16.9061 46.3079 16.9274 46.2121 16.8848C46.1273 17.105 45.9829 17.2973 45.7951 17.44C45.6072 17.5828 45.3833 17.6705 45.1485 17.6932C45.1418 17.8993 45.0754 18.0989 44.9574 18.2679C44.8394 18.4369 44.6748 18.568 44.4836 18.6452C44.527 18.8772 44.492 19.117 44.3842 19.3269C44.2764 19.5368 44.1018 19.7048 43.888 19.8046C43.9784 20.0812 43.8295 24.7668 42.1382 24.4636C41.3511 24.32 42.1382 15.986 48.1108 15.986C54.0835 15.986 54.8706 24.32 54.0835 24.4636Z" fill="url(#paint21_linear_1_388)"/>
<path d="M48.1109 20.5332C52.0891 20.5332 53.3443 22.5117 53.3443 22.5117C53.3443 22.299 55.4716 27.5908 58.4819 28.0003C62.9973 28.6279 62.7952 31.5478 62.7952 32.8189C62.7952 34.09 60.939 34.5208 60.939 36.095C60.939 37.6693 63.1781 40.0094 63.1781 43.4079C63.1781 52.2791 56.9715 59.6505 48.1109 59.6505C39.2503 59.6505 33.0437 52.2791 33.0437 43.4079C33.0437 40.0094 35.2828 37.664 35.2828 36.095C35.2828 34.5261 33.4266 34.09 33.4266 32.8189C33.4266 31.5478 33.2245 28.6279 37.7399 28.0003C40.7236 27.5908 42.9041 22.0384 42.8775 22.2511C42.8775 22.2511 44.1327 20.5332 48.1109 20.5332Z" fill="url(#paint22_radial_1_388)"/>
<path d="M48.1112 59.6505C36.3468 59.6505 35.4692 53.2258 36.868 44.5248C38.3412 39.568 34.7406 37.5789 36.3361 36.4355C41.4684 38.3182 42.9682 36.728 48.0899 36.728C53.2116 36.728 54.7114 38.3235 59.8437 36.4355C61.4392 37.5789 57.8599 39.568 59.3119 44.5248C60.7532 53.2258 59.8756 59.6505 48.1112 59.6505Z" fill="url(#paint23_radial_1_388)"/>
<path d="M48.1109 20.5332C52.0891 20.5332 53.3443 22.5117 53.3443 22.5117C53.3443 22.299 55.4716 27.5908 58.4819 28.0003C62.9973 28.6279 62.7952 31.5478 62.7952 32.8189C62.7952 34.09 60.939 34.5208 60.939 36.095C60.939 37.6693 63.1781 40.0094 63.1781 43.4079C63.1781 52.2791 56.9715 59.6505 48.1109 59.6505C39.2503 59.6505 33.0437 52.2791 33.0437 43.4079C33.0437 40.0094 35.2828 37.664 35.2828 36.095C35.2828 34.5261 33.4266 34.09 33.4266 32.8189C33.4266 31.5478 33.2245 28.6279 37.7399 28.0003C40.7236 27.5908 42.9041 22.0384 42.8775 22.2511C42.8775 22.2511 44.1327 20.5332 48.1109 20.5332Z" fill="url(#paint24_radial_1_388)"/>
<path d="M48.1112 59.6505C36.3468 59.6505 35.4692 53.2258 36.868 44.5248C38.3412 39.568 34.7406 37.5789 36.3361 36.4355C41.4684 38.3182 42.9682 36.728 48.0899 36.728C53.2116 36.728 54.7114 38.3235 59.8437 36.4355C61.4392 37.5789 57.8599 39.568 59.3119 44.5248C60.7532 53.2258 59.8756 59.6505 48.1112 59.6505Z" fill="url(#paint25_radial_1_388)"/>
<path d="M60.1305 34.824C60.1305 39.3021 58.7105 38.3927 55.2535 38.3927C53.0676 38.3927 51.4827 36.7227 48.1108 36.7227C44.7389 36.7227 43.154 38.3927 40.9681 38.3927C37.5111 38.3927 36.0911 39.3021 36.0911 34.824C36.0911 33.3986 34.921 32.436 36.2134 31.3032C37.2883 30.3863 38.6384 29.8544 40.0498 29.7918C41.4612 29.7292 42.8531 30.1394 44.0049 30.9575C45.3824 31.9041 45.6005 34.7921 48.1108 34.7921C50.6211 34.7921 50.8392 31.9041 52.2166 30.9575C53.3685 30.1394 54.7604 29.7292 56.1718 29.7918C57.5832 29.8544 58.9333 30.3863 60.0082 31.3032C61.3006 32.4413 60.1305 33.4039 60.1305 34.824Z" fill="url(#paint26_linear_1_388)"/>
<path d="M45.5686 34.4091C45.5686 32.9199 42.5637 31.218 39.5215 31.3138C36.4793 31.4095 37.3409 33.973 37.0537 34.9037C36.7665 35.8344 35.655 37.2332 38.5748 37.2332C41.4947 37.2332 45.5686 36.5258 45.5686 34.4091Z" fill="url(#paint27_radial_1_388)"/>
<path d="M45.5686 34.4091C45.5686 32.92 42.5637 31.2181 39.5215 31.3138C36.4793 31.4095 37.3409 33.973 37.0537 34.9038C36.7665 35.8345 35.655 37.2332 38.5748 37.2332C41.4947 37.2332 45.5686 36.5259 45.5686 34.4091Z" fill="black"/>
<path d="M50.6527 34.4091C50.6527 32.9199 53.6576 31.218 56.6998 31.3138C59.742 31.4095 58.8804 33.973 59.1676 34.9037C59.4548 35.8344 60.5663 37.2332 57.6465 37.2332C54.7267 37.2332 50.6527 36.5258 50.6527 34.4091Z" fill="url(#paint28_radial_1_388)"/>
<path d="M50.6527 34.4091C50.6527 32.92 53.6576 31.2181 56.6998 31.3138C59.742 31.4095 58.8804 33.973 59.1676 34.9038C59.4548 35.8345 60.5663 37.2332 57.6465 37.2332C54.7267 37.2332 50.6527 36.5259 50.6527 34.4091Z" fill="#0F0F0F"/>
<path d="M49.5789 32.2658C48.9832 32.7976 48.3131 31.8403 49.047 30.6117C49.5789 29.6917 48.1269 23.8254 48.1269 23.8254V31.101C48.1269 33.1114 47.0154 32.3456 46.425 31.8137C45.6485 31.117 43.1648 24.6178 43.085 22.666C43.0425 21.714 46.2229 20.9694 48.1269 20.9109C50.0309 20.9694 53.2114 21.714 53.1688 22.666C53.0784 24.5274 50.6532 31.2978 49.5789 32.2658Z" fill="url(#paint29_linear_1_388)"/>
<path d="M48.111 23.8254C48.8609 23.8254 51.2701 26.7931 50.6532 28.6758C50.1958 30.0799 49.9565 31.5584 49.0577 31.9892C48.1588 32.42 48.6003 31.0213 48.6854 30.1597C48.7705 29.2981 48.4567 26.0379 48.1163 26.0379C47.7759 26.0379 47.4674 29.2981 47.5472 30.1597C47.627 31.0213 48.0791 32.4253 47.1749 31.9892C46.2708 31.5531 46.0315 30.0799 45.5794 28.6758C44.9518 26.7931 47.3611 23.8254 48.111 23.8254Z" fill="url(#paint30_radial_1_388)"/>
<path d="M48.111 23.8254C48.8609 23.8254 51.2701 26.7931 50.6532 28.6758C50.1958 30.0799 49.9565 31.5584 49.0577 31.9892C48.1588 32.42 48.6003 31.0213 48.6854 30.1597C48.7705 29.2981 48.4567 26.0379 48.1163 26.0379C47.7759 26.0379 47.4674 29.2981 47.5472 30.1597C47.627 31.0213 48.0791 32.4253 47.1749 31.9892C46.2708 31.5531 46.0315 30.0799 45.5794 28.6758C44.9518 26.7931 47.3611 23.8254 48.111 23.8254Z" fill="#161616"/>
<path d="M48.111 19.56C48.111 19.0281 49.4938 18.9856 49.7597 19.5281C49.8653 19.4593 49.9848 19.4148 50.1097 19.3979C50.2346 19.381 50.3616 19.392 50.4817 19.4302C50.6018 19.4683 50.712 19.5327 50.8041 19.6186C50.8963 19.7045 50.9683 19.8098 51.0148 19.9269C51.302 19.5866 52.0785 19.3579 52.1636 20.5067C52.264 20.4851 52.3678 20.4841 52.4686 20.5038C52.5694 20.5234 52.6651 20.5632 52.7501 20.6209C52.8351 20.6785 52.9075 20.7528 52.963 20.8392C53.0185 20.9256 53.056 21.0223 53.0731 21.1236C53.472 20.9587 53.7538 22.517 53.2858 23.1712C52.806 22.9815 52.3658 22.7037 51.9881 22.3522C51.7754 22.8521 51.084 23.0382 50.8553 21.5969C50.6425 21.9639 49.9458 22.166 49.6161 21.2566C49.1215 22.4107 48.1482 21.565 48.111 20.9694C48.0737 21.565 47.1004 22.4107 46.6058 21.2566C46.2761 22.166 45.5794 21.9639 45.3666 21.5969C45.1379 23.0382 44.4465 22.8521 44.2338 22.3522C43.8561 22.7037 43.4159 22.9815 42.9361 23.1712C42.4681 22.517 42.7499 20.9587 43.1488 21.1236C43.1659 21.0223 43.2034 20.9256 43.2589 20.8392C43.3144 20.7528 43.3868 20.6785 43.4718 20.6209C43.5568 20.5632 43.6525 20.5234 43.7533 20.5038C43.8541 20.4841 43.9579 20.4851 44.0583 20.5067C44.1221 19.3579 44.9199 19.5866 45.2071 19.9269C45.2536 19.8098 45.3256 19.7045 45.4178 19.6186C45.5099 19.5327 45.6201 19.4683 45.7402 19.4302C45.8603 19.392 45.9873 19.381 46.1122 19.3979C46.2371 19.4148 46.3566 19.4593 46.4622 19.5281C46.7282 18.9856 48.111 19.0388 48.111 19.56Z" fill="url(#paint31_radial_1_388)"/>
<defs>
<radialGradient id="paint0_radial_1_388" cx="0" cy="0" r="1" gradientUnits="userSpaceOnUse" gradientTransform="translate(17.9286 67.0271) scale(37.8036 37.8036)">
<stop offset="0.39" stop-color="#1C1C18"/>
<stop offset="0.57" stop-color="white"/>
<stop offset="0.75" stop-color="#4C433D"/>
</radialGradient>
<linearGradient id="paint1_linear_1_388" x1="18.0716" y1="55.9062" x2="18.0184" y2="47.2264" gradientUnits="userSpaceOnUse">
<stop stop-color="#060B07"/>
<stop offset="0.5" stop-color="white"/>
<stop offset="1" stop-color="#090E0A"/>
</linearGradient>
<linearGradient id="paint2_linear_1_388" x1="2108.44" y1="2891.26" x2="2106.04" y2="2376.41" gradientUnits="userSpaceOnUse">
<stop stop-color="#4B4B4B"/>
<stop offset="0.5" stop-color="white"/>
<stop offset="1" stop-color="#4B4B4B"/>
</linearGradient>
<radialGradient id="paint3_radial_1_388" cx="0" cy="0" r="1" gradientUnits="userSpaceOnUse" gradientTransform="translate(17.97 50.7101) scale(9.32859 9.32857)">
<stop stop-color="#4B4B4B"/>
<stop offset="0.6"/>
<stop offset="1" stop-color="#4B4B4B"/>
</radialGradient>
<linearGradient id="paint4_linear_1_388" x1="17.976" y1="45.7798" x2="17.976" y2="54.1724" gradientUnits="userSpaceOnUse">
<stop stop-color="#4B4B4B"/>
<stop offset="1" stop-color="white"/>
</linearGradient>
<linearGradient id="paint5_linear_1_388" x1="11.7488" y1="1338.79" x2="17.5508" y2="1474.69" gradientUnits="userSpaceOnUse">
<stop stop-color="#4B4B4B"/>
<stop offset="1" stop-color="white"/>
</linearGradient>
<radialGradient id="paint6_radial_1_388" cx="0" cy="0" r="1" gradientUnits="userSpaceOnUse" gradientTransform="translate(3317.69 5686.93) scale(1786.37 2318.87)">
<stop stop-color="#4B4B4B"/>
<stop offset="0.6"/>
<stop offset="1" stop-color="#4B4B4B"/>
</radialGradient>
<radialGradient id="paint7_radial_1_388" cx="0" cy="0" r="1" gradientUnits="userSpaceOnUse" gradientTransform="translate(2683.6 3378.73) scale(1443.1 1376.19)">
<stop stop-color="#4B4B4B"/>
<stop offset="0.6"/>
<stop offset="1" stop-color="#4B4B4B"/>
</radialGradient>
<radialGradient id="paint8_radial_1_388" cx="0" cy="0" r="1" gradientUnits="userSpaceOnUse" gradientTransform="translate(17.5504 33.074) scale(26.3583 26.3583)">
<stop offset="0.3" stop-color="#7E7E7E"/>
<stop offset="0.51" stop-color="white"/>
<stop offset="0.61" stop-color="#848484"/>
<stop offset="0.72" stop-color="#E2E2E2"/>
</radialGradient>
<radialGradient id="paint9_radial_1_388" cx="0" cy="0" r="1" gradientUnits="userSpaceOnUse" gradientTransform="translate(17.7848 16.9069) scale(23.114 17.1044)">
<stop stop-color="#E3E3E3"/>
<stop offset="0.43" stop-color="white"/>
<stop offset="0.69" stop-color="#A9A9A9"/>
<stop offset="0.98" stop-color="white"/>
</radialGradient>
<linearGradient id="paint10_linear_1_388" x1="17.9759" y1="37.6532" x2="17.9759" y2="32.2444" gradientUnits="userSpaceOnUse">
<stop stop-color="white"/>
<stop offset="1" stop-color="#484337"/>
</linearGradient>
<radialGradient id="paint11_radial_1_388" cx="0" cy="0" r="1" gradientUnits="userSpaceOnUse" gradientTransform="translate(873.907 755.005) scale(146.26 86.0349)">
<stop stop-color="#4B4B4B"/>
<stop offset="0.6"/>
<stop offset="1" stop-color="#4B4B4B"/>
</radialGradient>
<radialGradient id="paint12_radial_1_388" cx="0" cy="0" r="1" gradientUnits="userSpaceOnUse" gradientTransform="translate(-852.001 755.005) rotate(180) scale(146.26 86.0349)">
<stop stop-color="#4B4B4B"/>
<stop offset="0.6"/>
<stop offset="1" stop-color="#4B4B4B"/>
</radialGradient>
<linearGradient id="paint13_linear_1_388" x1="17.9761" y1="47.7956" x2="17.9761" y2="36.2864" gradientUnits="userSpaceOnUse">
<stop stop-color="#2D3D37"/>
<stop offset="0.03" stop-color="#F9F9F9"/>
<stop offset="0.5" stop-color="#808080"/>
<stop offset="1" stop-color="white"/>
</linearGradient>
<radialGradient id="paint14_radial_1_388" cx="0" cy="0" r="1" gradientUnits="userSpaceOnUse" gradientTransform="translate(596.023 1258.75) scale(50.9231 79.5726)">
<stop stop-color="#4B4B4B"/>
<stop offset="0.6"/>
<stop offset="1" stop-color="#4B4B4B"/>
</radialGradient>
<radialGradient id="paint15_radial_1_388" cx="0" cy="0" r="1" gradientUnits="userSpaceOnUse" gradientTransform="translate(17.9508 39.7714) rotate(180) scale(12.0003 12.2379)">
<stop stop-color="#808080"/>
<stop offset="0.5" stop-color="white"/>
<stop offset="0.62" stop-color="#808080"/>
<stop offset="0.77" stop-color="white"/>
</radialGradient>
<radialGradient id="paint16_radial_1_388" cx="0" cy="0" r="1" gradientUnits="userSpaceOnUse" gradientTransform="translate(48.0635 1.67937) scale(37.8036 37.8036)">
<stop offset="0.39" stop-color="#1C1C18"/>
<stop offset="0.57" stop-color="white"/>
<stop offset="0.75" stop-color="#4C433D"/>
</radialGradient>
<linearGradient id="paint17_linear_1_388" x1="48.2066" y1="12.8003" x2="48.1534" y2="21.48" gradientUnits="userSpaceOnUse">
<stop stop-color="#060B07"/>
<stop offset="0.5" stop-color="white"/>
<stop offset="1" stop-color="#090E0A"/>
</linearGradient>
<linearGradient id="paint18_linear_1_388" x1="2138.57" y1="-2822.55" x2="2136.18" y2="-2307.7" gradientUnits="userSpaceOnUse">
<stop stop-color="#4B4B4B"/>
<stop offset="0.5" stop-color="white"/>
<stop offset="1" stop-color="#4B4B4B"/>
</linearGradient>
<radialGradient id="paint19_radial_1_388" cx="0" cy="0" r="1" gradientUnits="userSpaceOnUse" gradientTransform="translate(48.105 17.9964) scale(9.32859 9.32857)">
<stop stop-color="#4B4B4B"/>
<stop offset="0.6"/>
<stop offset="1" stop-color="#4B4B4B"/>
</radialGradient>
<linearGradient id="paint20_linear_1_388" x1="48.111" y1="22.9266" x2="48.111" y2="14.534" gradientUnits="userSpaceOnUse">
<stop stop-color="#4B4B4B"/>
<stop offset="1" stop-color="white"/>
</linearGradient>
<linearGradient id="paint21_linear_1_388" x1="41.8837" y1="-1270.08" x2="47.6857" y2="-1405.98" gradientUnits="userSpaceOnUse">
<stop stop-color="#4B4B4B"/>
<stop offset="1" stop-color="white"/>
</linearGradient>
<radialGradient id="paint22_radial_1_388" cx="0" cy="0" r="1" gradientUnits="userSpaceOnUse" gradientTransform="translate(3347.83 -5618.22) scale(1786.37 2318.87)">
<stop stop-color="#4B4B4B"/>
<stop offset="0.6"/>
<stop offset="1" stop-color="#4B4B4B"/>
</radialGradient>
<radialGradient id="paint23_radial_1_388" cx="0" cy="0" r="1" gradientUnits="userSpaceOnUse" gradientTransform="translate(2713.74 -3310.02) scale(1443.1 1376.19)">
<stop stop-color="#4B4B4B"/>
<stop offset="0.6"/>
<stop offset="1" stop-color="#4B4B4B"/>
</radialGradient>
<radialGradient id="paint24_radial_1_388" cx="0" cy="0" r="1" gradientUnits="userSpaceOnUse" gradientTransform="translate(47.6854 35.6323) scale(26.3583 26.3583)">
<stop offset="0.3" stop-color="#7E7E7E"/>
<stop offset="0.51" stop-color="white"/>
<stop offset="0.61" stop-color="#848484"/>
<stop offset="0.72" stop-color="#E2E2E2"/>
</radialGradient>
<radialGradient id="paint25_radial_1_388" cx="0" cy="0" r="1" gradientUnits="userSpaceOnUse" gradientTransform="translate(47.9197 51.7995) scale(23.114 17.1044)">
<stop stop-color="#E3E3E3"/>
<stop offset="0.43" stop-color="white"/>
<stop offset="0.69" stop-color="#A9A9A9"/>
<stop offset="0.98" stop-color="white"/>
</radialGradient>
<linearGradient id="paint26_linear_1_388" x1="48.1108" y1="31.0532" x2="48.1108" y2="36.4621" gradientUnits="userSpaceOnUse">
<stop stop-color="white"/>
<stop offset="1" stop-color="#484337"/>
</linearGradient>
<radialGradient id="paint27_radial_1_388" cx="0" cy="0" r="1" gradientUnits="userSpaceOnUse" gradientTransform="translate(904.042 -686.299) scale(146.26 86.0349)">
<stop stop-color="#4B4B4B"/>
<stop offset="0.6"/>
<stop offset="1" stop-color="#4B4B4B"/>
</radialGradient>
<radialGradient id="paint28_radial_1_388" cx="0" cy="0" r="1" gradientUnits="userSpaceOnUse" gradientTransform="translate(-821.866 -686.299) rotate(180) scale(146.26 86.0349)">
<stop stop-color="#4B4B4B"/>
<stop offset="0.6"/>
<stop offset="1" stop-color="#4B4B4B"/>
</radialGradient>
<linearGradient id="paint29_linear_1_388" x1="48.111" y1="20.9109" x2="48.111" y2="32.42" gradientUnits="userSpaceOnUse">
<stop stop-color="#2D3D37"/>
<stop offset="0.03" stop-color="#F9F9F9"/>
<stop offset="0.5" stop-color="#808080"/>
<stop offset="1" stop-color="white"/>
</linearGradient>
<radialGradient id="paint30_radial_1_388" cx="0" cy="0" r="1" gradientUnits="userSpaceOnUse" gradientTransform="translate(626.158 -1190.05) scale(50.9231 79.5726)">
<stop stop-color="#4B4B4B"/>
<stop offset="0.6"/>
<stop offset="1" stop-color="#4B4B4B"/>
</radialGradient>
<radialGradient id="paint31_radial_1_388" cx="0" cy="0" r="1" gradientUnits="userSpaceOnUse" gradientTransform="translate(48.0858 28.935) rotate(180) scale(12.0003 12.2379)">
<stop stop-color="#808080"/>
<stop offset="0.5" stop-color="white"/>
<stop offset="0.62" stop-color="#808080"/>
<stop offset="0.77" stop-color="white"/>
</radialGradient>
</defs>
</svg>
